<svg width="1600" height="1160" viewBox="0 0 1600 1160" fill="none" xmlns="http://www.w3.org/2000/svg">
  <defs>
    <linearGradient id="bgWash" x1="120" y1="180" x2="1480" y2="1040" gradientUnits="userSpaceOnUse">
      <stop stop-color="#D8EAFE"/>
      <stop offset="0.32" stop-color="#E8F4FF"/>
      <stop offset="0.62" stop-color="#F4E7FF"/>
      <stop offset="1" stop-color="#DDF7FF"/>
    </linearGradient>
    <linearGradient id="strokeGlow" x1="180" y1="240" x2="1380" y2="980" gradientUnits="userSpaceOnUse">
      <stop stop-color="#8DD8FF" stop-opacity="0.65"/>
      <stop offset="0.5" stop-color="#D4B0FF" stop-opacity="0.45"/>
      <stop offset="1" stop-color="#B6FFF7" stop-opacity="0.55"/>
    </linearGradient>
    <filter id="softShadow" x="116" y="116" width="1368" height="928" filterUnits="userSpaceOnUse" color-interpolation-filters="sRGB">
      <feDropShadow dx="0" dy="22" stdDeviation="24" flood-color="#0F172A" flood-opacity="0.08"/>
    </filter>
  </defs>

  <rect width="1600" height="1160" fill="#0B0B0F"/>
  <rect x="60" y="42" width="1480" height="1076" rx="26" fill="#FFFFFF"/>

  <g filter="url(#softShadow)">
    <rect x="118" y="182" width="1364" height="896" rx="30" fill="#FFFFFF"/>
  </g>

  <rect x="118" y="182" width="1364" height="104" fill="#FFFFFF"/>
  <rect x="118" y="286" width="1364" height="792" fill="url(#bgWash)"/>

  <path d="M124 1000C314 836 312 514 542 364C746 231 996 350 1174 246C1278 184 1340 110 1480 94" stroke="url(#strokeGlow)" stroke-width="18" stroke-linecap="round" opacity="0.55"/>
  <path d="M180 1048C404 860 360 604 602 454C824 317 1078 426 1268 310C1340 266 1402 214 1472 150" stroke="url(#strokeGlow)" stroke-width="10" stroke-linecap="round" opacity="0.35"/>
  <path d="M156 444L408 214" stroke="#CAE7FF" stroke-opacity="0.8" stroke-width="8" stroke-linecap="round"/>
  <path d="M244 604L590 258" stroke="#E3D5FF" stroke-opacity="0.75" stroke-width="10" stroke-linecap="round"/>
  <path d="M946 972L1290 630" stroke="#D6F6FF" stroke-opacity="0.65" stroke-width="9" stroke-linecap="round"/>
  <path d="M1030 434L1334 132" stroke="#DDEBFF" stroke-opacity="0.55" stroke-width="8" stroke-linecap="round"/>
  <path d="M198 904C262 844 302 808 366 744" stroke="#E7D5FF" stroke-opacity="0.45" stroke-width="6" stroke-linecap="round"/>
  <path d="M1270 980C1338 926 1382 884 1448 826" stroke="#D4F6FF" stroke-opacity="0.5" stroke-width="6" stroke-linecap="round"/>

  <rect x="118" y="182" width="1364" height="104" fill="#FFFFFF"/>

  <g>
    <rect x="214" y="229" width="23" height="23" rx="4" fill="none" stroke="#1D4ED8" stroke-width="3"/>
    <path d="M223 217V264" stroke="#1D4ED8" stroke-width="3" stroke-linecap="round"/>
    <path d="M213 228H250" stroke="#1D4ED8" stroke-width="3" stroke-linecap="round"/>
    <text x="252" y="246" fill="#0F172A" font-family="Arial, sans-serif" font-size="17" font-weight="700">Callback Handler</text>
  </g>

  <g>
    <rect x="1096" y="221" width="160" height="40" rx="20" fill="#FFFFFF" stroke="#CBD5E1"/>
    <path d="M1133 245L1141 237" stroke="#475569" stroke-width="2.4" stroke-linecap="round"/>
    <path d="M1128 250L1138 240L1147 249L1137 259L1128 260L1128 250Z" stroke="#475569" stroke-width="2.2" stroke-linejoin="round"/>
    <text x="1154" y="248" fill="#334155" font-family="Arial, sans-serif" font-size="17">Feature Requests</text>

    <rect x="1268" y="221" width="138" height="40" rx="20" fill="#FFFFFF" stroke="#CBD5E1"/>
    <path d="M1291 242C1291 238.8 1293.7 236.2 1297 236.2C1299.3 236.2 1301.3 237.5 1302.2 239.3C1303.2 237.5 1305.1 236.2 1307.5 236.2C1310.8 236.2 1313.4 238.8 1313.4 242C1313.4 247.7 1302.2 253.8 1302.2 253.8C1302.2 253.8 1291 247.7 1291 242Z" stroke="#475569" stroke-width="2.1" stroke-linejoin="round"/>
    <text x="1320" y="248" fill="#334155" font-family="Arial, sans-serif" font-size="17">Support Us</text>

    <rect x="1418" y="221" width="102" height="40" rx="20" fill="#FFFFFF" stroke="#CBD5E1"/>
    <path d="M1451 236.5C1444.7 236.5 1439.7 241.7 1439.7 248.1C1439.7 253.3 1443 257.6 1447.7 259.2V252.7C1447.7 252.2 1448.1 251.8 1448.6 251.8H1450.7C1451.2 251.8 1451.6 252.2 1451.6 252.7V260C1452 260.1 1452.3 260.1 1452.7 260.1C1453.1 260.1 1453.5 260.1 1453.9 260V252.7C1453.9 252.2 1454.3 251.8 1454.8 251.8H1456.9C1457.4 251.8 1457.8 252.2 1457.8 252.7V259.2C1462.5 257.6 1465.8 253.3 1465.8 248.1C1465.8 241.7 1460.8 236.5 1454.5 236.5H1451Z" fill="#334155"/>
    <text x="1472" y="248" fill="#334155" font-family="Arial, sans-serif" font-size="17">GitHub</text>
  </g>

  <text x="650" y="408" fill="#020617" font-family="Arial, sans-serif" font-size="58" font-weight="700">Callback Handler</text>
  <text x="448" y="462" fill="#0F172A" font-family="Arial, sans-serif" font-size="19">Generate a unique URL to capture HTTP requests and callbacks. Inspect headers, body, and more in real-time.</text>

  <rect x="208" y="528" width="584" height="94" rx="12" fill="#FFFFFF" fill-opacity="0.94" stroke="#CBD5E1"/>
  <circle cx="257" cy="575" r="21" fill="#1E293B"/>
  <rect x="247" y="563" width="20" height="20" rx="10" fill="#94A3B8"/>
  <text x="290" y="569" fill="#0F172A" font-family="Arial, sans-serif" font-size="17" font-weight="700">Patrick Mutwiri</text>
  <text x="290" y="593" fill="#64748B" font-family="Arial, sans-serif" font-size="15">dev@patric.xyz</text>
  <rect x="588" y="551" width="102" height="34" rx="6" fill="#FFFFFF" stroke="#CBD5E1"/>
  <text x="615" y="573" fill="#0F172A" font-family="Arial, sans-serif" font-size="15">View Dashboard</text>
  <rect x="698" y="551" width="86" height="34" rx="6" fill="#FFFFFF" stroke="#CBD5E1"/>
  <text x="727" y="573" fill="#0F172A" font-family="Arial, sans-serif" font-size="15">Sign Out</text>

  <rect x="812" y="528" width="620" height="232" rx="12" fill="#FFFFFF" fill-opacity="0.96" stroke="#CBD5E1"/>
  <text x="1034" y="585" fill="#020617" font-family="Arial, sans-serif" font-size="46" font-weight="700">Get Started</text>
  <text x="832" y="635" fill="#334155" font-family="Arial, sans-serif" font-size="16">Generate Slug</text>
  <text x="832" y="665" fill="#475569" font-family="Arial, sans-serif" font-size="13">You can input yours or we can generate one for you by clicking auto generate button below.</text>
  <rect x="832" y="678" width="460" height="44" rx="4" fill="#FFFFFF" stroke="#CBD5E1"/>
  <text x="847" y="705" fill="#94A3B8" font-family="Arial, sans-serif" font-size="14">e.g. my-webhook</text>
  <rect x="1302" y="678" width="110" height="44" rx="4" fill="#FFFFFF" stroke="#CBD5E1"/>
  <path d="M1325 694L1332 690L1339 694V702L1332 706L1325 702V694Z" stroke="#0F172A" stroke-width="1.8" stroke-linejoin="round"/>
  <path d="M1325 694L1332 698L1339 694" stroke="#0F172A" stroke-width="1.8" stroke-linejoin="round"/>
  <path d="M1332 698V706" stroke="#0F172A" stroke-width="1.8" stroke-linecap="round"/>
  <text x="1348" y="705" fill="#0F172A" font-family="Arial, sans-serif" font-size="14">Auto Generate</text>
  <rect x="832" y="739" width="580" height="38" rx="3" fill="#020617"/>
  <text x="1069" y="763" fill="#FFFFFF" font-family="Arial, sans-serif" font-size="17" font-weight="700">Start Recording</text>

  <rect x="118" y="1078" width="1364" height="40" fill="#FFFFFF"/>
  <text x="590" y="1102" fill="#64748B" font-family="Arial, sans-serif" font-size="14">Privacy Policy</text>
  <text x="682" y="1102" fill="#94A3B8" font-family="Arial, sans-serif" font-size="14">•</text>
  <text x="700" y="1102" fill="#64748B" font-family="Arial, sans-serif" font-size="14">Support Us</text>
  <text x="790" y="1102" fill="#94A3B8" font-family="Arial, sans-serif" font-size="14">•</text>
  <text x="808" y="1102" fill="#64748B" font-family="Arial, sans-serif" font-size="14">Feature Requests</text>
  <text x="934" y="1102" fill="#94A3B8" font-family="Arial, sans-serif" font-size="14">•</text>
  <text x="952" y="1102" fill="#64748B" font-family="Arial, sans-serif" font-size="14">GitHub Repository</text>
</svg>
