<svg width="1400" height="860" viewBox="0 0 1400 860" fill="none" xmlns="http://www.w3.org/2000/svg">
  <rect width="1400" height="860" fill="#F8FAFC"/>
  <rect x="50" y="40" width="1300" height="780" rx="28" fill="white" stroke="#CBD5E1" stroke-width="2"/>
  <text x="90" y="110" fill="#0F172A" font-family="Arial, sans-serif" font-size="46" font-weight="700">My Slugs</text>
  <text x="92" y="154" fill="#475569" font-family="Arial, sans-serif" font-size="24">View the endpoints tied to your account and jump into their request history.</text>
  <rect x="1015" y="82" width="240" height="42" rx="21" fill="#FFFFFF" stroke="#CBD5E1"/>
  <text x="1060" y="109" fill="#334155" font-family="Arial, sans-serif" font-size="20">Track My Feature Requests</text>
  <rect x="90" y="220" width="1170" height="160" rx="22" fill="#FFFFFF" stroke="#CBD5E1"/>
  <text x="125" y="272" fill="#0F172A" font-family="Arial, sans-serif" font-size="30" font-weight="700">stripe-debug-0405</text>
  <text x="125" y="312" fill="#475569" font-family="Arial, sans-serif" font-size="22">Created Apr 5, 2026</text>
  <text x="125" y="350" fill="#334155" font-family="Arial, sans-serif" font-size="22">https://callback-handler-ui.vercel.app/record/stripe-debug-0405</text>
  <rect x="1000" y="248" width="120" height="44" rx="14" fill="#FFFFFF" stroke="#CBD5E1"/>
  <text x="1039" y="276" fill="#0F172A" font-family="Arial, sans-serif" font-size="20">Open</text>
  <rect x="1135" y="248" width="110" height="44" rx="14" fill="#FFFFFF" stroke="#CBD5E1"/>
  <text x="1163" y="276" fill="#0F172A" font-family="Arial, sans-serif" font-size="20">Copy</text>
  <rect x="90" y="420" width="1170" height="310" rx="22" fill="#FFFFFF" stroke="#CBD5E1"/>
  <text x="125" y="472" fill="#0F172A" font-family="Arial, sans-serif" font-size="34" font-weight="700">Deletion Requests</text>
  <text x="125" y="515" fill="#475569" font-family="Arial, sans-serif" font-size="22">Admin-only log of requested slug deletions, reasons, and archive outcomes.</text>
  <rect x="125" y="555" width="1100" height="120" rx="16" fill="#F8FAFC" stroke="#CBD5E1"/>
  <text x="155" y="603" fill="#0F172A" font-family="Arial, sans-serif" font-size="28" font-weight="700">stripe-debug-0405</text>
  <text x="155" y="640" fill="#334155" font-family="Arial, sans-serif" font-size="22">Reason: Testing is complete and the endpoint is no longer needed.</text>
</svg>
